<svg width="24" height="24" viewBox="0 0 24 24" fill="none" xmlns="http://www.w3.org/2000/svg">
<path d="M9.71696 20.4992L17.49 12.5252C17.6265 12.3851 17.7029 12.1973 17.7029 12.0017C17.7029 11.8061 17.6265 11.6182 17.49 11.4782L9.71696 3.50118C9.65336 3.43586 9.57733 3.38395 9.49334 3.3485C9.40936 3.31306 9.31912 3.2948 9.22796 3.2948C9.1368 3.2948 9.04656 3.31306 8.96257 3.3485C8.87859 3.38395 8.80255 3.43586 8.73896 3.50118C8.60812 3.63513 8.53488 3.81494 8.53488 4.00218C8.53488 4.18942 8.60812 4.36923 8.73896 4.50318L16.0485 12.0017L8.73896 19.4987C8.60857 19.6326 8.53561 19.8121 8.53561 19.9989C8.53561 20.1858 8.60857 20.3653 8.73896 20.4992C8.80255 20.5645 8.87859 20.6164 8.96257 20.6519C9.04656 20.6873 9.1368 20.7056 9.22796 20.7056C9.31912 20.7056 9.40936 20.6873 9.49334 20.6519C9.57733 20.6164 9.65336 20.5645 9.71696 20.4992V20.4992Z" fill="#ACACAC"/>
</svg>
